HIERARCHY
ROOT Hips
{
	OFFSET 0.00000 0.00000 0.00000
	CHANNELS 6 Xposition Yposition Zposition Zrotation Yrotation Xrotation 
	JOINT LHipJoint
	{
		OFFSET 0 0 0
		CHANNELS 3 Zrotation Yrotation Xrotation
		JOINT LeftUpLeg
		{
			OFFSET 1.61328 -1.70571 0.84375
			CHANNELS 3 Zrotation Yrotation Xrotation
			JOINT LeftLeg
			{
				OFFSET 2.32400 -6.38513 0.00000
				CHANNELS 3 Zrotation Yrotation Xrotation
				JOINT LeftFoot
				{
					OFFSET 2.58843 -7.11166 0.00000
					CHANNELS 3 Zrotation Yrotation Xrotation
					JOINT LeftToeBase
					{
						OFFSET 0.17200 -0.47257 2.47970
						CHANNELS 3 Zrotation Yrotation Xrotation
						End Site
						{
							OFFSET 0.00000 -0.00000 1.26912
						}
					}
				}
			}
		}
	}
	JOINT RHipJoint
	{
		OFFSET 0 0 0
		CHANNELS 3 Zrotation Yrotation Xrotation
		JOINT RightUpLeg
		{
			OFFSET -1.49930 -1.70570 0.84375
			CHANNELS 3 Zrotation Yrotation Xrotation
			JOINT RightLeg
			{
				OFFSET -2.30458 -6.33178 0.00000
				CHANNELS 3 Zrotation Yrotation Xrotation
				JOINT RightFoot
				{
					OFFSET -2.62261 -7.20556 0.00000
					CHANNELS 3 Zrotation Yrotation Xrotation
					JOINT RightToeBase
					{
						OFFSET -0.18709 -0.51403 2.51340
						CHANNELS 3 Zrotation Yrotation Xrotation
						End Site
						{
							OFFSET -0.00000 -0.00000 1.28858
						}
					}
				}
			}
		}
	}
	JOINT LowerBack
	{
		OFFSET 0 0 0
		CHANNELS 3 Zrotation Yrotation Xrotation
		JOINT Spine
		{
			OFFSET -0.03798 2.19274 -0.19881
			CHANNELS 3 Zrotation Yrotation Xrotation
			JOINT Spine1
			{
				OFFSET -0.00024 2.19460 0.05248
				CHANNELS 3 Zrotation Yrotation Xrotation
				JOINT Neck
				{
					OFFSET 0 0 0
					CHANNELS 3 Zrotation Yrotation Xrotation
					JOINT Neck1
					{
						OFFSET -0.00746 1.82323 0.17286
						CHANNELS 3 Zrotation Yrotation Xrotation
						JOINT Head
						{
							OFFSET 0.11826 1.82121 -0.27841
							CHANNELS 3 Zrotation Yrotation Xrotation
							End Site
							{
								OFFSET 0.03496 1.85543 -0.11495
							}
						}
					}
				}
				JOINT LeftShoulder
				{
					OFFSET 0 0 0
					CHANNELS 3 Zrotation Yrotation Xrotation
					JOINT LeftArm
					{
						OFFSET 3.71926 0.78840 0.25473
						CHANNELS 3 Zrotation Yrotation Xrotation
						JOINT LeftForeArm
						{
							OFFSET 5.37587 -0.00000 0.00000
							CHANNELS 3 Zrotation Yrotation Xrotation
							JOINT LeftHand
							{
								OFFSET 3.35977 -0.00000 0.00000
								CHANNELS 3 Zrotation Yrotation Xrotation
								JOINT LeftFingerBase
								{
									OFFSET 0 0 0
									CHANNELS 3 Zrotation Yrotation Xrotation
									JOINT LeftHandIndex1
									{
										OFFSET 0.56186 -0.00000 0.00000
										CHANNELS 3 Zrotation Yrotation Xrotation
										End Site
										{
											OFFSET 0.45299 -0.00000 0.00000
										}
									}
								}
								JOINT LThumb
								{
									OFFSET 0 0 0
									CHANNELS 3 Zrotation Yrotation Xrotation
									End Site
									{
										OFFSET 0.45990 -0.00000 0.45990
									}
								}
							}
						}
					}
				}
				JOINT RightShoulder
				{
					OFFSET 0 0 0
					CHANNELS 3 Zrotation Yrotation Xrotation
					JOINT RightArm
					{
						OFFSET -3.65136 0.56074 0.01624
						CHANNELS 3 Zrotation Yrotation Xrotation
						JOINT RightForeArm
						{
							OFFSET -5.22819 -0.00000 0.00000
							CHANNELS 3 Zrotation Yrotation Xrotation
							JOINT RightHand
							{
								OFFSET -3.40764 -0.00000 0.00000
								CHANNELS 3 Zrotation Yrotation Xrotation
								JOINT RightFingerBase
								{
									OFFSET 0 0 0
									CHANNELS 3 Zrotation Yrotation Xrotation
									JOINT RightHandIndex1
									{
										OFFSET -0.58325 -0.00000 0.00000
										CHANNELS 3 Zrotation Yrotation Xrotation
										End Site
										{
											OFFSET -0.47024 -0.00000 0.00000
										}
									}
								}
								JOINT RThumb
								{
									OFFSET 0 0 0
									CHANNELS 3 Zrotation Yrotation Xrotation
									End Site
									{
										OFFSET -0.47742 -0.00000 0.47742
									}
								}
							}
						}
					}
				}
			}
		}
	}
}
MOTION
Frames: 7
Frame Time: .0083333
48.3804 16.6683 -8.4599 0 0 0 0 0 0 -21 0 0 0 0 0 0 0 0 0 0 0 0 0 0 21 0 0 0 0 0 0 0 0 0 0 0 0 0 0 0 0 0 0 0 0 0 0 -16 0 0 21 0 0 11 0 0 0 -8 0 0 0 0 0 0 0 0 0 0 0 0 0 0 0 0 0 0 0 0 8 0 0 0 0 0 0 0 0 0 0 0 0 0 0 0 0 0
48.3804 16.6683 -8.4599 -8.4108 -75.0415 8.0617 0.0000 0.0000 0.0000 -11.1594 -0.1799 -12.9067 2.4015 9.6565 27.8714 0.3571 -4.6325 -10.6503 0.9041 -6.0593 -16.9567 0.0000 0.0000 0.0000 26.8601 -9.3082 -11.7641 -2.6247 -10.0612 29.1752 -2.2317 -0.9028 -28.6082 -1.4398 -7.5861 21.4639 2.4691 1.1910 -2.4594 0.2174 1.4081 4.3090 -1.0520 0.7848 5.9045 -5.7153 -6.1774 -10.1572 11.9704 -8.5434 4.7830 4.0129 -3.8372 3.8686 -0.0000 -0.0000 0.0000 -87.9614 1.3614 16.8427 14.4951 -23.4381 -3.0223 -0.0000 0.0000 -11.0709 17.9916 15.8080 5.0557 -7.1250 0.0000 -0.0000 -9.1768 46.3499 -0.3083 -0.0000 -0.0000 0.0000 88.5205 1.0644 16.7504 -14.8679 23.9618 -3.1721 0.0000 -0.0000 -2.8363 -25.0568 4.0799 -1.9051 7.1250 -0.0000 -0.0000 1.1924 -25.4775 0.5636
48.3819 16.6621 -8.4705 -8.6857 -75.0255 8.2361 0.0000 0.0000 0.0000 -11.0519 0.0024 -13.1643 2.4924 9.8241 28.4091 0.3854 -4.7309 -11.0603 1.0042 -6.3766 -17.8810 0.0000 0.0000 0.0000 26.9607 -9.3915 -11.7392 -2.6335 -10.0767 29.2255 -2.2310 -0.8752 -28.5941 -1.4261 -7.5513 21.3593 2.5313 1.1991 -2.3721 0.2470 1.4154 4.3305 -1.0570 0.7900 5.8786 -5.7032 -6.1803 -10.0987 11.9597 -8.5518 4.8034 4.0083 -3.8429 3.8648 0.0000 -0.0000 0.0000 -87.9479 1.5567 17.1230 14.6290 -23.6267 -3.0757 -0.0000 0.0000 -11.4938 18.0199 16.0034 5.1248 -7.1250 0.0000 -0.0000 -9.2018 46.5541 -0.3559 0.0000 -0.0000 0.0000 88.5053 1.0560 16.7071 -14.8387 23.9209 -3.1602 0.0000 -0.0000 -2.7683 -25.0290 4.0471 -1.8874 7.1250 -0.0000 -0.0000 1.2128 -25.5147 0.5722
48.3863 16.6583 -8.4797 -8.7695 -74.9909 8.2861 0.0000 0.0000 0.0000 -11.0128 0.1460 -13.5274 2.5948 10.0083 29.0036 0.4126 -4.7125 -11.4374 1.1191 -6.7202 -18.8891 0.0000 0.0000 0.0000 27.0162 -9.4452 -11.7674 -2.6396 -10.0874 29.2602 -2.2333 -0.8448 -28.5981 -1.4301 -7.5615 21.3899 2.5492 1.2083 -2.3676 0.2671 1.4256 4.3348 -1.0454 0.7953 5.8809 -5.6394 -6.1727 -9.9694 11.9536 -8.5553 4.8167 3.9990 -3.8478 3.8448 -0.0000 0.0000 0.0000 -88.0419 1.5847 16.9160 14.5862 -23.5665 -3.0586 -0.0000 0.0000 -11.2587 18.0103 15.9047 5.0913 -7.1250 0.0000 -0.0000 -9.1848 46.4516 -0.3318 -0.0000 0.0000 0.0000 88.4756 1.0371 16.6506 -14.8047 23.8733 -3.1465 0.0000 -0.0000 -2.7582 -25.0263 4.0618 -1.8940 7.1250 -0.0000 -0.0000 1.2151 -25.4986 0.5738
48.3865 16.6551 -8.4862 -8.8993 -75.0059 8.3323 0.0000 0.0000 0.0000 -10.9992 0.3343 -13.7694 2.6998 10.1924 29.6020 0.4368 -4.6293 -11.7614 1.1839 -6.9053 -19.4350 0.0000 0.0000 0.0000 27.0576 -9.4890 -11.7177 -2.6451 -10.0970 29.2914 -2.2334 -0.8492 -28.6002 -1.4166 -7.5273 21.2872 2.5710 1.2028 -2.3438 0.2938 1.4143 4.3841 -1.0306 0.7902 5.9189 -5.6306 -6.1536 -10.0061 11.9615 -8.5381 4.8954 3.9999 -3.8353 3.8731 -0.0000 -0.0000 0.0000 -88.1317 1.5462 16.7572 14.5207 -23.4742 -3.0325 -0.0000 0.0000 -11.1132 18.0349 15.8703 5.0880 -7.1250 0.0000 -0.0000 -9.1530 46.4196 -0.3233 -0.0000 -0.0000 0.0000 88.4353 1.1365 16.5795 -14.7299 23.7684 -3.1163 0.0000 -0.0000 -2.6610 -25.0366 4.0863 -1.9063 7.1250 -0.0000 -0.0000 1.2076 -25.4711 0.5710
48.3876 16.6513 -8.4936 -9.0605 -75.0091 8.4159 0.0000 0.0000 0.0000 -10.9645 0.5125 -14.0462 2.8099 10.3808 30.2190 0.4605 -4.6082 -12.0742 1.2657 -7.1312 -20.1047 0.0000 0.0000 0.0000 27.1191 -9.5131 -11.6703 -2.6498 -10.1053 29.3185 -2.2358 -0.8634 -28.6205 -1.4068 -7.5024 21.2127 2.5995 1.2046 -2.3204 0.3201 1.4130 4.4199 -1.0193 0.7904 5.9433 -5.6096 -6.1419 -9.9957 11.9708 -8.5333 4.9637 3.9995 -3.8306 3.8911 0.0000 -0.0000 0.0000 -88.2134 1.5418 16.5920 14.4682 -23.4001 -3.0116 -0.0000 0.0000 -10.9501 18.0164 15.8367 5.0721 -7.1250 0.0000 -0.0000 -9.1613 46.3827 -0.3152 0.0000 -0.0000 0.0000 88.4054 1.1953 16.5020 -14.6693 23.6833 -3.0919 0.0000 -0.0000 -2.5852 -25.0465 4.1001 -1.9136 7.1250 -0.0000 -0.0000 1.2004 -25.4557 0.5680
48.3882 16.6479 -8.5001 -9.2161 -75.0244 8.4943 0.0000 0.0000 0.0000 -10.9430 0.6938 -14.3187 2.9267 10.5754 30.8610 0.4807 -4.6160 -12.3367 1.3402 -7.3299 -20.6964 0.0000 0.0000 0.0000 27.1760 -9.5132 -11.6059 -2.6531 -10.1112 29.3375 -2.2387 -0.8935 -28.6492 -1.3964 -7.4757 21.1325 2.6273 1.2075 -2.3050 0.3431 1.4132 4.4547 -1.0108 0.7913 5.9715 -5.5865 -6.1283 -9.9874 11.9817 -8.5274 5.0413 3.9992 -3.8249 3.9122 0.0000 0.0000 0.0000 -88.2936 1.5257 16.4055 14.3960 -23.2980 -2.9829 -0.0000 0.0000 -10.7440 17.9874 15.7939 5.0501 -7.1250 0.0000 -0.0000 -9.1770 46.3349 -0.3049 0.0000 0.0000 0.0000 88.3801 1.2497 16.4227 -14.6135 23.6049 -3.0695 0.0000 -0.0000 -2.5117 -25.0632 4.1110 -1.9202 7.1250 -0.0000 -0.0000 1.1879 -25.4430 0.5625
